<svg width="160" height="160" viewBox="0 0 160 160" fill="none" xmlns="http://www.w3.org/2000/svg">
<path d="M28.8473 30H49L36.1527 80H16L28.8473 30Z" fill="#E6E6E6"/>
<path d="M131.931 130H113L125.069 80H144L131.931 130Z" fill="#E6E6E6"/>
<path d="M61.0687 30H80L67.9313 80H49L61.0687 30Z" fill="#E6E6E6"/>
<path d="M100.153 130H80L92.8473 80H113L100.153 130Z" fill="#E6E6E6"/>
<path d="M92.8473 30H113L100.153 80H80L92.8473 30Z" fill="#E6E6E6"/>
<path d="M67.9313 130H49L61.0687 80H80L67.9313 130Z" fill="#E6E6E6"/>
<path d="M125.069 30H144L131.931 80H113L125.069 30Z" fill="#E6E6E6"/>
<path d="M36.1527 130H16L28.8473 80H49L36.1527 130Z" fill="#E6E6E6"/>
</svg>
