<svg width="160" height="160" viewBox="0 0 160 160" fill="none" xmlns="http://www.w3.org/2000/svg">
<g clip-path="url(#clip0_1959_54)">
<g filter="url(#filter0_f_1959_54)">
<circle cx="80" cy="80" r="40" fill="url(#paint0_linear_1959_54)"/>
</g>
<path d="M64.5 55.1761V42.5L44.5 66.331V78.5H53.2805V68.8662L64.5 55.1761Z" fill="#E6E6E6"/>
<path d="M96.5 55.1761V42.5L116.5 66.331V78.5H107.72V68.8662L96.5 55.1761Z" fill="#E6E6E6"/>
<path d="M64.5 101.824V114.5L44.5 90.669V78.5H53.2805V88.1338L64.5 101.824Z" fill="#E6E6E6"/>
<path d="M96.5 101.824V114.5L116.5 90.669V78.5H107.72V88.1338L96.5 101.824Z" fill="#E6E6E6"/>
<path d="M72.5 78L86.5 71L85.5 87.5L72.5 78Z" fill="#E6E6E6"/>
</g>
<defs>
<filter id="filter0_f_1959_54" x="-3.4" y="-3.4" width="166.8" height="166.8" filterUnits="userSpaceOnUse" color-interpolation-filters="sRGB">
<feFlood flood-opacity="0" result="BackgroundImageFix"/>
<feBlend mode="normal" in="SourceGraphic" in2="BackgroundImageFix" result="shape"/>
<feGaussianBlur stdDeviation="21.7" result="effect1_foregroundBlur_1959_54"/>
</filter>
<linearGradient id="paint0_linear_1959_54" x1="40" y1="80" x2="120" y2="80" gradientUnits="userSpaceOnUse">
<stop stop-color="white"/>
<stop offset="0.115" stop-color="#FFD600"/>
<stop offset="0.274413" stop-color="#E38517"/>
<stop offset="0.35951" stop-color="#E31477"/>
<stop offset="0.440244" stop-color="#AB3DC6"/>
<stop offset="0.706447" stop-color="#1133E7"/>
<stop offset="1"/>
</linearGradient>
<clipPath id="clip0_1959_54">
<rect width="160" height="160" fill="white"/>
</clipPath>
</defs>
</svg>
