<svg width="168" height="168" viewBox="0 0 168 168" fill="none" xmlns="http://www.w3.org/2000/svg">
<g filter="url(#filter0_f_1959_54)">
<circle cx="84" cy="84" r="40" fill="url(#paint0_linear_1959_54)"/>
</g>
<path d="M68 60.6761V48L48 71.831V84H56.7805V74.3662L68 60.6761Z" fill="#E6E6E6"/>
<path d="M100 60.6761V48L120 71.831V84H111.22V74.3662L100 60.6761Z" fill="#E6E6E6"/>
<path d="M68 107.324V120L48 96.169V84H56.7805V93.6338L68 107.324Z" fill="#E6E6E6"/>
<path d="M100 107.324V120L120 96.169V84H111.22V93.6338L100 107.324Z" fill="#E6E6E6"/>
<path d="M76 83.5L90 76.5L89 93L76 83.5Z" fill="#E6E6E6"/>
<defs>
<filter id="filter0_f_1959_54" x="0.599998" y="0.599998" width="166.8" height="166.8" filterUnits="userSpaceOnUse" color-interpolation-filters="sRGB">
<feFlood flood-opacity="0" result="BackgroundImageFix"/>
<feBlend mode="normal" in="SourceGraphic" in2="BackgroundImageFix" result="shape"/>
<feGaussianBlur stdDeviation="21.7" result="effect1_foregroundBlur_1959_54"/>
</filter>
<linearGradient id="paint0_linear_1959_54" x1="44" y1="84" x2="124" y2="84" gradientUnits="userSpaceOnUse">
<stop stop-color="white"/>
<stop offset="0.115" stop-color="#FFD600"/>
<stop offset="0.274413" stop-color="#E38517"/>
<stop offset="0.35951" stop-color="#E31477"/>
<stop offset="0.440244" stop-color="#AB3DC6"/>
<stop offset="0.706447" stop-color="#1133E7"/>
<stop offset="1"/>
</linearGradient>
</defs>
</svg>
