<svg width="160" height="66" viewBox="0 0 160 66" fill="none" xmlns="http://www.w3.org/2000/svg">
<path fill-rule="evenodd" clip-rule="evenodd" d="M6.00903 0H9.38916V40H6.00903V0ZM136.989 0H140.369V40H136.989V0ZM35.5852 0H28.8249V40H35.5852V0ZM76.1469 0H82.9071V40H76.1469V0ZM16.1495 0H14.4594V40H16.1495V0ZM145.439 0H147.129V40H145.439V0ZM22.0647 0H20.3747V40H22.0647V0ZM151.355 0H153.045V40H151.355V0ZM23.7547 0H22.9097V40H23.7547V0ZM153.89 0H154.735V40H153.89V0ZM18.6845 0H17.8395V40H18.6845V0ZM148.82 0H149.665V40H148.82V0ZM26.7123 0H26.2898V40H26.7123V0ZM58.8237 0H55.4436L55.4436 40H58.8237L58.8237 0ZM122.624 0H126.004V40H122.624L122.624 0ZM106.145 0H102.765L102.765 40H106.145V0ZM48.6832 0H50.3733L50.3733 40H48.6832L48.6832 0ZM117.553 0H115.863L115.863 40H117.553V0ZM69.3865 0H71.0766V40H69.3865L69.3865 0ZM97.6951 0H96.005L96.005 40H97.6951V0ZM42.7681 0H44.4581L44.4581 40H42.7681L42.7681 0ZM111.638 0H109.948L109.948 40H111.638V0ZM90.0897 0H91.7798V40H90.0897L90.0897 0ZM41.923 0H41.0779L41.0779 40H41.923L41.923 0ZM108.258 0H109.103V40H108.258V0ZM89.2448 0H88.3998V40H89.2448V0ZM46.148 0H46.9931L46.9931 40H46.1481L46.148 0ZM114.173 0H113.328V40H114.173V0ZM66.8513 0H67.6964V40H66.8513L66.8513 0ZM134.876 0H134.031V40H134.876V0ZM93.4699 0H94.3149V40H93.4699V0ZM38.5428 0H38.1203L38.1203 40H38.5428L38.5428 0ZM85.4422 0H85.8647V40H85.4422V0Z" fill="#E6E6E6"/>
<path fill-rule="evenodd" clip-rule="evenodd" d="M160 25H0L0 17H160V25Z" fill="#E24420" fill-opacity="0.85"/>
<path d="M155.116 65.92C152.197 65.92 150.232 63.84 150.232 60.72C150.232 57.6 152.197 55.52 155.116 55.52C158.035 55.52 160 57.68 160 60.88L159.844 61.04H151.808C151.886 63.12 153.209 64.52 155.116 64.52C156.556 64.52 157.801 63.64 158.229 62.32H159.786C159.163 64.48 157.295 65.92 155.116 65.92ZM151.886 59.64H158.346C157.996 58.02 156.692 56.92 155.116 56.92C153.54 56.92 152.236 58.02 151.886 59.64Z" fill="#E24420"/>
<path d="M142.843 65.72V55.72H144.4V57.1C145.1 56.16 146.209 55.52 147.182 55.52C147.474 55.52 147.786 55.6 147.98 55.72V56.92H147.319C145.567 56.92 144.4 58.1 144.4 59.88V65.72H142.843Z" fill="#E6E6E6"/>
<path d="M138.553 55.72V65.72H136.996V64.44C136.315 65.32 135.089 65.92 133.961 65.92C131.528 65.92 129.913 64.32 129.913 61.92V55.72H131.47V61.64C131.47 63.36 132.579 64.52 134.233 64.52C135.887 64.52 136.996 63.36 136.996 61.64V55.72H138.553Z" fill="#E24420"/>
<path d="M124.619 65.92C122.887 65.92 121.72 64.82 121.72 63.16V57.12H120.163V55.72H121.72V52H123.276V55.72H126.117V57.12H123.276V63.16C123.276 63.98 123.782 64.52 124.522 64.52H126.215V65.72C125.728 65.84 125.086 65.92 124.619 65.92Z" fill="#E24420"/>
<path d="M108.197 65.72V55.72H109.754V57C110.435 56.12 111.661 55.52 112.789 55.52C115.222 55.52 116.837 57.12 116.837 59.52V65.72H115.28V59.8C115.28 58.08 114.171 56.92 112.517 56.92C110.863 56.92 109.754 58.08 109.754 59.8V65.72H108.197Z" fill="#E6E6E6"/>
<path d="M99.4948 65.92C96.5759 65.92 94.6106 63.84 94.6106 60.72C94.6106 57.6 96.5759 55.52 99.4948 55.52C102.414 55.52 104.379 57.68 104.379 60.88L104.223 61.04H96.1868C96.2646 63.12 97.5878 64.52 99.4948 64.52C100.935 64.52 102.18 63.64 102.608 62.32H104.165C103.542 64.48 101.674 65.92 99.4948 65.92ZM96.2646 59.64H102.725C102.375 58.02 101.071 56.92 99.4948 56.92C97.9186 56.92 96.6149 58.02 96.2646 59.64Z" fill="#E24420"/>
<path d="M86.7267 65.72L82.835 55.72H84.5084L87.4467 63.94L90.4044 55.72H92.0779L88.1861 65.72H86.7267Z" fill="#E6E6E6"/>
<path d="M74.1476 65.92C71.2677 65.92 69.3218 63.84 69.3218 60.72C69.3218 57.6 71.2677 55.52 74.1476 55.52C75.5097 55.52 76.9302 56.28 77.6891 57.42V52H79.2458V65.72H77.6891V64.02C76.9302 65.16 75.5097 65.92 74.1476 65.92ZM74.3032 64.52C76.327 64.52 77.6891 63 77.6891 60.72C77.6891 58.44 76.327 56.92 74.3032 56.92C72.2601 56.92 70.8785 58.44 70.8785 60.72C70.8785 63 72.2601 64.52 74.3032 64.52Z" fill="#E6E6E6"/>
<path d="M65.1176 65.72L63.5804 61.74H57.626L56.0888 65.72H54.2207L59.7081 52H61.4983L66.9857 65.72H65.1176ZM58.2487 60.14H62.9577L60.6032 54.06L58.2487 60.14Z" fill="#E6E6E6"/>
<path d="M41.5025 65.92C39.0118 65.92 37.2994 64.48 37.2605 62.32H38.7199C38.7588 63.64 39.868 64.52 41.5025 64.52C43.0787 64.52 44.1489 63.88 44.1489 62.92C44.1489 62.12 43.4484 61.68 41.4052 61.2C38.7977 60.6 37.8832 59.88 37.8832 58.4C37.8832 56.68 39.3426 55.52 41.5025 55.52C43.2538 55.52 44.7716 56.54 45.297 58.06L43.8765 58.42C43.5846 57.52 42.6311 56.92 41.5025 56.92C40.2766 56.92 39.4399 57.46 39.4399 58.28C39.4399 58.96 40.0431 59.34 41.736 59.76C44.6743 60.38 45.6862 61.18 45.6862 62.84C45.6862 64.68 44.0127 65.92 41.5025 65.92Z" fill="#E24420"/>
<path d="M33.0452 56.4V55.2C33.6289 55.2 34.0181 54.8 34.0181 54.2H33.0452V52H35.1856V54.2C35.1856 55.52 34.3294 56.4 33.0452 56.4Z" fill="#E24420"/>
<path d="M27.9402 65.92C26.2084 65.92 25.0408 64.82 25.0408 63.16V57.12H23.4841V55.72H25.0408V52H26.5975V55.72H29.4385V57.12H26.5975V63.16C26.5975 63.98 27.1035 64.52 27.8429 64.52H29.5358V65.72C29.0494 65.84 28.4072 65.92 27.9402 65.92Z" fill="#E24420"/>
<path d="M16.1451 65.92C13.2263 65.92 11.261 63.84 11.261 60.72C11.261 57.6 13.2263 55.52 16.1451 55.52C19.064 55.52 21.0293 57.68 21.0293 60.88L20.8736 61.04H12.8372C12.915 63.12 14.2382 64.52 16.1451 64.52C17.5851 64.52 18.8305 63.64 19.2586 62.32H20.8153C20.1926 64.48 18.3245 65.92 16.1451 65.92ZM12.915 59.64H19.3753C19.0251 58.02 17.7213 56.92 16.1451 56.92C14.569 56.92 13.2652 58.02 12.915 59.64Z" fill="#E6E6E6"/>
<path d="M0 65.72V52H1.75129V64.12H8.62025V65.72H0Z" fill="#E6E6E6"/>
</svg>
