<svg width="167" height="72" viewBox="0 0 167 72" fill="none" xmlns="http://www.w3.org/2000/svg">
<path fill-rule="evenodd" clip-rule="evenodd" d="M6.27197 0H9.79999V40H6.27197V0ZM142.983 0H146.511V40H142.983V0ZM37.1421 0H30.0861V40H37.1421V0ZM79.4784 0H86.5344V40H79.4784V0ZM16.8561 0H15.0921V40H16.8561V0ZM151.803 0H153.567V40H151.803V0ZM23.0301 0H21.2661V40H23.0301V0ZM157.977 0H159.741V40H157.977V0ZM24.7941 0H23.9121V40H24.7941V0ZM160.623 0H161.505V40H160.623V0ZM19.502 0H18.62V40H19.502V0ZM155.331 0H156.213V40H155.331V0ZM27.881 0H27.44V40H27.881V0ZM61.3974 0H57.8694L57.8694 40H61.3974L61.3974 0ZM127.988 0H131.516V40H127.988L127.988 0ZM110.789 0H107.261L107.261 40H110.789V0ZM50.8132 0H52.5772L52.5772 40H50.8132L50.8132 0ZM122.696 0H120.932L120.932 40H122.696V0ZM72.4223 0H74.1863V40H72.4223L72.4223 0ZM101.969 0H100.205L100.205 40H101.969V0ZM44.6392 0H46.4032L46.4033 40H44.6392L44.6392 0ZM116.522 0H114.758L114.758 40H116.522V0ZM94.0312 0H95.7952V40H94.0312L94.0312 0ZM43.7572 0H42.8752L42.8752 40H43.7572L43.7572 0ZM112.994 0H113.876V40H112.994V0ZM93.1494 0H92.2674V40H93.1494V0ZM48.1671 0H49.0491L49.0491 40H48.1671L48.1671 0ZM119.169 0H118.287V40H119.169V0ZM69.7762 0H70.6582V40H69.7762L69.7762 0ZM140.778 0H139.896V40H140.778V0ZM97.5593 0H98.4413V40H97.5593V0ZM40.2291 0H39.7881L39.7881 40H40.2291L40.2291 0ZM89.1804 0H89.6214V40H89.1804V0Z" fill="#E6E6E6"/>
<line y1="21" x2="167" y2="21" stroke="url(#paint0_linear_1228_1536)" stroke-width="8"/>
<path d="M1.61289 68V54.28H3.41289V66.4H10.4729V68H1.61289ZM18.2068 68.2C15.2068 68.2 13.1868 66.12 13.1868 63C13.1868 59.88 15.2068 57.8 18.2068 57.8C21.2068 57.8 23.2268 59.96 23.2268 63.16L23.0668 63.32H14.8068C14.8868 65.4 16.2468 66.8 18.2068 66.8C19.6868 66.8 20.9668 65.92 21.4068 64.6H23.0068C22.3668 66.76 20.4468 68.2 18.2068 68.2ZM14.8868 61.92H21.5268C21.1668 60.3 19.8268 59.2 18.2068 59.2C16.5868 59.2 15.2468 60.3 14.8868 61.92ZM68.5413 68L66.9613 64.02H60.8413L59.2613 68H57.3413L62.9813 54.28H64.8213L70.4613 68H68.5413ZM61.4813 62.42H66.3213L63.9013 56.34L61.4813 62.42ZM77.8226 68.2C74.8626 68.2 72.8626 66.12 72.8626 63C72.8626 59.88 74.8626 57.8 77.8226 57.8C79.2226 57.8 80.6826 58.56 81.4626 59.7V54.28H83.0626V68H81.4626V66.3C80.6826 67.44 79.2226 68.2 77.8226 68.2ZM77.9826 66.8C80.0626 66.8 81.4626 65.28 81.4626 63C81.4626 60.72 80.0626 59.2 77.9826 59.2C75.8826 59.2 74.4626 60.72 74.4626 63C74.4626 65.28 75.8826 66.8 77.9826 66.8ZM90.7515 68L86.7515 58H88.4715L91.4915 66.22L94.5315 58H96.2515L92.2515 68H90.7515ZM112.819 68V58H114.419V59.28C115.119 58.4 116.379 57.8 117.539 57.8C120.039 57.8 121.699 59.4 121.699 61.8V68H120.099V62.08C120.099 60.36 118.959 59.2 117.259 59.2C115.559 59.2 114.419 60.36 114.419 62.08V68H112.819ZM148.429 68V58H150.029V59.38C150.749 58.44 151.889 57.8 152.889 57.8C153.189 57.8 153.509 57.88 153.709 58V59.2H153.029C151.229 59.2 150.029 60.38 150.029 62.16V68H148.429Z" fill="#E6E6E6"/>
<path d="M30.3304 68.2C28.5504 68.2 27.3504 67.1 27.3504 65.44V59.4H25.7504V58H27.3504V54.28H28.9504V58H31.8704V59.4H28.9504V65.44C28.9504 66.26 29.4704 66.8 30.2304 66.8H31.9704V68C31.4704 68.12 30.8104 68.2 30.3304 68.2Z" fill="#FFD600"/>
<path d="M35.577 58.68V57.48C36.177 57.48 36.577 57.08 36.577 56.48H35.577V54.28H37.777V56.48C37.777 57.8 36.897 58.68 35.577 58.68ZM44.2695 68.2C41.7095 68.2 39.9495 66.76 39.9095 64.6H41.4095C41.4495 65.92 42.5895 66.8 44.2695 66.8C45.8895 66.8 46.9895 66.16 46.9895 65.2C46.9895 64.4 46.2695 63.96 44.1695 63.48C41.4895 62.88 40.5495 62.16 40.5495 60.68C40.5495 58.96 42.0495 57.8 44.2695 57.8C46.0695 57.8 47.6295 58.82 48.1695 60.34L46.7095 60.7C46.4095 59.8 45.4295 59.2 44.2695 59.2C43.0095 59.2 42.1495 59.74 42.1495 60.56C42.1495 61.24 42.7695 61.62 44.5095 62.04C47.5295 62.66 48.5695 63.46 48.5695 65.12C48.5695 66.96 46.8495 68.2 44.2695 68.2Z" fill="#E38517"/>
<path d="M103.875 68.2C100.875 68.2 98.8548 66.12 98.8548 63C98.8548 59.88 100.875 57.8 103.875 57.8C106.875 57.8 108.895 59.96 108.895 63.16L108.735 63.32H100.475C100.555 65.4 101.915 66.8 103.875 66.8C105.355 66.8 106.635 65.92 107.075 64.6H108.675C108.035 66.76 106.115 68.2 103.875 68.2ZM100.555 61.92H107.195C106.835 60.3 105.495 59.2 103.875 59.2C102.255 59.2 100.915 60.3 100.555 61.92Z" fill="#E31477"/>
<path d="M129.698 68.2C127.918 68.2 126.718 67.1 126.718 65.44V59.4H125.118V58H126.718V54.28H128.318V58H131.238V59.4H128.318V65.44C128.318 66.26 128.838 66.8 129.598 66.8H131.338V68C130.838 68.12 130.178 68.2 129.698 68.2ZM144.019 58V68H142.419V66.72C141.719 67.6 140.459 68.2 139.299 68.2C136.799 68.2 135.139 66.6 135.139 64.2V58H136.739V63.92C136.739 65.64 137.879 66.8 139.579 66.8C141.279 66.8 142.419 65.64 142.419 63.92V58H144.019Z" fill="#AB3DC6"/>
<path d="M161.043 68.2C158.043 68.2 156.023 66.12 156.023 63C156.023 59.88 158.043 57.8 161.043 57.8C164.043 57.8 166.063 59.96 166.063 63.16L165.903 63.32H157.643C157.723 65.4 159.083 66.8 161.043 66.8C162.523 66.8 163.803 65.92 164.243 64.6H165.843C165.203 66.76 163.283 68.2 161.043 68.2ZM157.723 61.92H164.363C164.003 60.3 162.663 59.2 161.043 59.2C159.423 59.2 158.083 60.3 157.723 61.92Z" fill="#1133E7"/>
<defs>
<linearGradient id="paint0_linear_1228_1536" x1="0" y1="25.5" x2="167" y2="25.5" gradientUnits="userSpaceOnUse">
<stop stop-color="white"/>
<stop offset="0.115" stop-color="#FFD600"/>
<stop offset="0.274413" stop-color="#E38517"/>
<stop offset="0.35951" stop-color="#E31477"/>
<stop offset="0.440244" stop-color="#AB3DC6"/>
<stop offset="0.706447" stop-color="#1133E7"/>
<stop offset="1"/>
</linearGradient>
</defs>
</svg>
