<svg width="160" height="66" viewBox="0 0 160 66" fill="none" xmlns="http://www.w3.org/2000/svg">
<path fill-rule="evenodd" clip-rule="evenodd" d="M0 0H3.63637V40H0V0ZM140.909 0H144.546V40H140.909V0ZM31.8182 0H24.5454V40H31.8182V0ZM75.4545 0H82.7272V40H75.4545V0ZM10.909 0H9.09079V40H10.909V0ZM150 0H151.818V40H150V0ZM17.2728 0H15.4546V40H17.2728V0ZM156.364 0H158.182V40H156.364V0ZM19.0909 0H18.1818V40H19.0909V0ZM159.091 0H160V40H159.091V0ZM13.6363 0H12.7272V40H13.6363V0ZM153.637 0H154.546V40H153.637V0ZM22.2728 0H21.8182V40H22.2728V0ZM56.8183 0H53.1819L53.1819 40H56.8183L56.8183 0ZM125.455 0H129.091V40H125.455L125.455 0ZM107.728 0H104.091L104.091 40H107.728L107.728 0ZM45.9091 0H47.7273L47.7273 40H45.9091L45.9091 0ZM120 0H118.182L118.182 40H120L120 0ZM68.1819 0H70.0001L70.0001 40H68.1819L68.1819 0ZM98.6366 0H96.8184L96.8184 40H98.6366L98.6366 0ZM39.5455 0H41.3637L41.3637 40H39.5455L39.5455 0ZM113.637 0H111.818L111.818 40H113.637L113.637 0ZM90.4545 0H92.2727L92.2727 40H90.4545L90.4545 0ZM38.6365 0H37.7274L37.7274 40H38.6365L38.6365 0ZM110 0H110.909L110.909 40H110V0ZM89.5458 0H88.6367V40H89.5458L89.5458 0ZM43.1818 0H44.0908L44.0908 40H43.1818L43.1818 0ZM116.364 0H115.455V40H116.364L116.364 0ZM65.4546 0H66.3637L66.3637 40H65.4546V0ZM138.637 0H137.728V40H138.637V0ZM94.0911 0H95.0001L95.0002 40H94.0911V0ZM35.0001 0H34.5455L34.5455 40H35.0001L35.0001 0ZM85.4546 0H85.9091L85.9091 40H85.4546V0Z" fill="#E6E6E6"/>
<path d="M143.205 65.92C140.205 65.92 138.185 63.84 138.185 60.72C138.185 57.6 140.205 55.52 143.205 55.52C146.205 55.52 148.225 57.68 148.225 60.88L148.065 61.04H139.805C139.885 63.12 141.245 64.52 143.205 64.52C144.685 64.52 145.965 63.64 146.405 62.32H148.005C147.365 64.48 145.445 65.92 143.205 65.92ZM139.885 59.64H146.525C146.165 58.02 144.825 56.92 143.205 56.92C141.585 56.92 140.245 58.02 139.885 59.64Z" fill="#E6E6E6"/>
<path d="M132.591 65.72V55.72H134.191V57.1C134.911 56.16 136.051 55.52 137.051 55.52C137.351 55.52 137.671 55.6 137.871 55.72V56.92H137.191C135.391 56.92 134.191 58.1 134.191 59.88V65.72H132.591Z" fill="#E6E6E6"/>
<path d="M130.182 55.72V65.72H128.582V64.44C127.882 65.32 126.622 65.92 125.462 65.92C122.962 65.92 121.302 64.32 121.302 61.92V55.72H122.902V61.64C122.902 63.36 124.042 64.52 125.742 64.52C127.442 64.52 128.582 63.36 128.582 61.64V55.72H130.182Z" fill="#E6E6E6"/>
<path d="M117.86 65.92C116.08 65.92 114.88 64.82 114.88 63.16V57.12H113.28V55.72H114.88V52H116.48V55.72H119.4V57.12H116.48V63.16C116.48 63.98 117 64.52 117.76 64.52H119.5V65.72C119 65.84 118.34 65.92 117.86 65.92Z" fill="#E6E6E6"/>
<path d="M102.981 65.72V55.72H104.581V57C105.281 56.12 106.541 55.52 107.701 55.52C110.201 55.52 111.861 57.12 111.861 59.52V65.72H110.261V59.8C110.261 58.08 109.121 56.92 107.421 56.92C105.721 56.92 104.581 58.08 104.581 59.8V65.72H102.981Z" fill="#E6E6E6"/>
<path d="M96.0369 65.92C93.0369 65.92 91.017 63.84 91.017 60.72C91.017 57.6 93.0369 55.52 96.0369 55.52C99.0369 55.52 101.057 57.68 101.057 60.88L100.897 61.04H92.6369C92.7169 63.12 94.0769 64.52 96.0369 64.52C97.5169 64.52 98.797 63.64 99.237 62.32H100.837C100.197 64.48 98.2769 65.92 96.0369 65.92ZM92.7169 59.64H99.3569C98.9969 58.02 97.6569 56.92 96.0369 56.92C94.4169 56.92 93.0769 58.02 92.7169 59.64Z" fill="#E6E6E6"/>
<path d="M84.9137 65.72L80.9137 55.72H82.6337L85.6537 63.94L88.6937 55.72H90.4137L86.4137 65.72H84.9137Z" fill="#E6E6E6"/>
<path d="M73.9848 65.92C71.0248 65.92 69.0248 63.84 69.0248 60.72C69.0248 57.6 71.0248 55.52 73.9848 55.52C75.3848 55.52 76.8448 56.28 77.6248 57.42V52H79.2248V65.72H77.6248V64.02C76.8448 65.16 75.3848 65.92 73.9848 65.92ZM74.1448 64.52C76.2248 64.52 77.6248 63 77.6248 60.72C77.6248 58.44 76.2248 56.92 74.1448 56.92C72.0448 56.92 70.6248 58.44 70.6248 60.72C70.6248 63 72.0448 64.52 74.1448 64.52Z" fill="#E6E6E6"/>
<path d="M66.7035 65.72L65.1235 61.74H59.0035L57.4235 65.72H55.5035L61.1435 52H62.9835L68.6235 65.72H66.7035ZM59.6435 60.14H64.4835L62.0635 54.06L59.6435 60.14Z" fill="#E6E6E6"/>
<path d="M46.4316 65.92C43.8716 65.92 42.1116 64.48 42.0716 62.32H43.5716C43.6116 63.64 44.7516 64.52 46.4316 64.52C48.0516 64.52 49.1516 63.88 49.1516 62.92C49.1516 62.12 48.4316 61.68 46.3316 61.2C43.6516 60.6 42.7116 59.88 42.7116 58.4C42.7116 56.68 44.2116 55.52 46.4316 55.52C48.2316 55.52 49.7916 56.54 50.3316 58.06L48.8716 58.42C48.5716 57.52 47.5916 56.92 46.4316 56.92C45.1716 56.92 44.3116 57.46 44.3116 58.28C44.3116 58.96 44.9316 59.34 46.6716 59.76C49.6916 60.38 50.7316 61.18 50.7316 62.84C50.7316 64.68 49.0116 65.92 46.4316 65.92Z" fill="#E6E6E6"/>
<path d="M39.7391 56.4V55.2C40.3391 55.2 40.7391 54.8 40.7391 54.2H39.7391V52H41.9391V54.2C41.9391 55.52 41.0591 56.4 39.7391 56.4Z" fill="#E6E6E6"/>
<path d="M36.4926 65.92C34.7126 65.92 33.5126 64.82 33.5126 63.16V57.12H31.9126V55.72H33.5126V52H35.1126V55.72H38.0326V57.12H35.1126V63.16C35.1126 63.98 35.6326 64.52 36.3926 64.52H38.1326V65.72C37.6326 65.84 36.9726 65.92 36.4926 65.92Z" fill="#E6E6E6"/>
<path d="M26.369 65.92C23.369 65.92 21.349 63.84 21.349 60.72C21.349 57.6 23.369 55.52 26.369 55.52C29.369 55.52 31.389 57.68 31.389 60.88L31.229 61.04H22.969C23.049 63.12 24.409 64.52 26.369 64.52C27.849 64.52 29.129 63.64 29.569 62.32H31.169C30.529 64.48 28.609 65.92 26.369 65.92ZM23.049 59.64H29.689C29.329 58.02 27.989 56.92 26.369 56.92C24.749 56.92 23.409 58.02 23.049 59.64Z" fill="#E6E6E6"/>
<path d="M11.7751 65.72V52H13.5751V64.12H20.6351V65.72H11.7751Z" fill="#E6E6E6"/>
</svg>
