<svg width="386" height="501" viewBox="0 0 386 501" fill="none" xmlns="http://www.w3.org/2000/svg">
<g filter="url(#filter0_d_1639_216)">
<path d="M209.483 156.754L227.605 100L164.177 154.727L209.483 156.754Z" fill="#F9DAD2"/>
<path d="M138 227.697L163.17 156.754L208.476 158.781L215.524 209.455L140.014 332.084L138 227.697Z" fill="#F6C7BC"/>
<path d="M210.49 158.781L228.612 103.04L286 204.387L243.714 243.912L217.537 209.455L210.49 158.781Z" fill="#E8694D"/>
<path d="M140.014 335.125L216.531 211.481L242.707 245.939L203.442 401L140.014 335.125Z" fill="#5A1B0D"/>
<path d="M244.721 245.939L286 207.428L256.803 343.232L205.456 398.973L244.721 245.939Z" fill="#B5361A"/>
</g>
<path d="M286.693 109V108H286.044L285.78 108.593L286.693 109ZM245.667 189C245.667 191.946 248.054 194.333 251 194.333C253.946 194.333 256.333 191.946 256.333 189C256.333 186.054 253.946 183.667 251 183.667C248.054 183.667 245.667 186.054 245.667 189ZM342 108H286.693V110H342V108ZM285.78 108.593L250.087 188.593L251.913 189.407L287.606 109.407L285.78 108.593Z" fill="#E6E6E6"/>
<path d="M150.667 240C150.667 242.946 153.054 245.333 156 245.333C158.946 245.333 161.333 242.946 161.333 240C161.333 237.054 158.946 234.667 156 234.667C153.054 234.667 150.667 237.054 150.667 240ZM120.575 194L121.367 193.39L121.067 193H120.575V194ZM156.792 239.39L121.367 193.39L119.783 194.61L155.208 240.61L156.792 239.39ZM120.575 193H0V195H120.575V193Z" fill="#E6E6E6"/>
<path d="M191.667 334C191.667 336.946 194.054 339.333 197 339.333C199.946 339.333 202.333 336.946 202.333 334C202.333 331.054 199.946 328.667 197 328.667C194.054 328.667 191.667 331.054 191.667 334ZM259.5 440L258.639 440.508L258.929 441H259.5V440ZM196.139 334.508L258.639 440.508L260.361 439.492L197.861 333.492L196.139 334.508ZM259.5 441H363V439H259.5V441Z" fill="#E6E6E6"/>
<defs>
<filter id="filter0_d_1639_216" x="38" y="0" width="348" height="501" filterUnits="userSpaceOnUse" color-interpolation-filters="sRGB">
<feFlood flood-opacity="0" result="BackgroundImageFix"/>
<feColorMatrix in="SourceAlpha" type="matrix" values="0 0 0 0 0 0 0 0 0 0 0 0 0 0 0 0 0 0 127 0" result="hardAlpha"/>
<feOffset/>
<feGaussianBlur stdDeviation="50"/>
<feComposite in2="hardAlpha" operator="out"/>
<feColorMatrix type="matrix" values="0 0 0 0 0.886275 0 0 0 0 0.266667 0 0 0 0 0.12549 0 0 0 0.5 0"/>
<feBlend mode="normal" in2="BackgroundImageFix" result="effect1_dropShadow_1639_216"/>
<feBlend mode="normal" in="SourceGraphic" in2="effect1_dropShadow_1639_216" result="shape"/>
</filter>
</defs>
</svg>
