<svg width="359" height="401" viewBox="0 0 359 401" fill="none" xmlns="http://www.w3.org/2000/svg">
<g filter="url(#filter0_d_1643_218)">
<path d="M121.483 106.754L139.605 50L76.1769 104.727L121.483 106.754Z" fill="#F9DAD2"/>
<path d="M50 177.697L75.1701 106.754L120.476 108.781L127.524 159.455L52.0136 282.084L50 177.697Z" fill="#F6C7BC"/>
<path d="M122.49 108.781L140.612 53.0404L198 154.387L155.714 193.912L129.537 159.455L122.49 108.781Z" fill="#E8694D"/>
<path d="M52.0136 285.125L128.531 161.481L154.707 195.939L115.442 351L52.0136 285.125Z" fill="#5A1B0D"/>
<path d="M156.721 195.939L198 157.428L168.803 293.232L117.456 348.973L156.721 195.939Z" fill="#B5361A"/>
</g>
<path d="M182.693 45V44H182.044L181.78 44.5925L182.693 45ZM141.667 125C141.667 127.946 144.054 130.333 147 130.333C149.946 130.333 152.333 127.946 152.333 125C152.333 122.054 149.946 119.667 147 119.667C144.054 119.667 141.667 122.054 141.667 125ZM339.5 44L182.693 44V46L339.5 46V44ZM181.78 44.5925L146.087 124.593L147.913 125.407L183.606 45.4075L181.78 44.5925Z" fill="#E6E6E6"/>
<path d="M108.667 277C108.667 279.946 111.054 282.333 114 282.333C116.946 282.333 119.333 279.946 119.333 277C119.333 274.054 116.946 271.667 114 271.667C111.054 271.667 108.667 274.054 108.667 277ZM159.557 400L158.619 400.347L158.861 401L159.557 401L159.557 400ZM113.062 277.347L158.619 400.347L160.495 399.653L114.938 276.653L113.062 277.347ZM159.557 401L335 401L335 399L159.557 399L159.557 401Z" fill="#E6E6E6"/>
<path d="M111.333 165C111.333 162.054 108.946 159.667 106 159.667C103.054 159.667 100.667 162.054 100.667 165C100.667 167.946 103.054 170.333 106 170.333C108.946 170.333 111.333 167.946 111.333 165ZM139.381 222L138.518 222.505L138.808 223H139.381V222ZM105.137 165.505L138.518 222.505L140.244 221.495L106.863 164.495L105.137 165.505ZM139.381 223H358.5V221H139.381V223Z" fill="#E6E6E6"/>
<defs>
<filter id="filter0_d_1643_218" x="0" y="0" width="248" height="401" filterUnits="userSpaceOnUse" color-interpolation-filters="sRGB">
<feFlood flood-opacity="0" result="BackgroundImageFix"/>
<feColorMatrix in="SourceAlpha" type="matrix" values="0 0 0 0 0 0 0 0 0 0 0 0 0 0 0 0 0 0 127 0" result="hardAlpha"/>
<feOffset/>
<feGaussianBlur stdDeviation="25"/>
<feComposite in2="hardAlpha" operator="out"/>
<feColorMatrix type="matrix" values="0 0 0 0 0.886275 0 0 0 0 0.266667 0 0 0 0 0.12549 0 0 0 0.5 0"/>
<feBlend mode="normal" in2="BackgroundImageFix" result="effect1_dropShadow_1643_218"/>
<feBlend mode="normal" in="SourceGraphic" in2="effect1_dropShadow_1643_218" result="shape"/>
</filter>
</defs>
</svg>
