<svg width="385" height="399" viewBox="0 0 385 399" fill="none" xmlns="http://www.w3.org/2000/svg">
<path fill-rule="evenodd" clip-rule="evenodd" d="M381.391 197.446C381.391 90.0563 294.335 3 186.946 3V0C295.992 0 384.391 88.3995 384.391 197.446H381.391Z" fill="url(#paint0_linear_50_228)"/>
<path d="M9.5132 238.697L1.76629 241.147L3.19784 245.674L2.29 245.961L0.504395 240.315L9.15914 237.578L9.5132 238.697Z" fill="#F2F2F2"/>
<path d="M21.4589 274.433L13.4312 278.67L12.8831 277.631L20.9108 273.394L21.4589 274.433Z" fill="#F2F2F2"/>
<path d="M38.6468 305.27L37.8977 305.858L34.9587 302.113L32.5617 303.994L35.3636 307.564L34.6146 308.152L31.8127 304.582L28.5668 307.129L27.8419 306.205L34.9827 300.601L38.6468 305.27Z" fill="#F2F2F2"/>
<path d="M62.9638 334.335L62.3464 335.06L58.7219 331.974L56.7464 334.293L60.2018 337.236L59.5845 337.961L56.1291 335.018L54.0713 337.434L57.7683 340.583L57.151 341.308L52.5599 337.398L58.4452 330.487L62.9638 334.335Z" fill="#F2F2F2"/>
<path d="M111.888 379.871L110.736 379.473L117.342 372.152L118.572 372.577L119.267 382.421L118.037 381.996L117.86 378.913L115.022 377.932L115.639 377.138L117.799 377.884L117.54 373.443L111.888 379.871Z" fill="#F2F2F2"/>
<path d="M153.478 393.823L154.56 384.81L158.405 385.272C160.119 385.477 160.889 386.301 160.716 387.742C160.576 388.914 159.633 389.681 157.889 390.043L160.474 394.662L158.936 394.478L156.555 390.081L156.647 389.318C158.402 389.252 159.343 388.694 159.469 387.643C159.569 386.811 159.14 386.338 158.182 386.223L155.61 385.914L154.644 393.962L153.478 393.823Z" fill="#F2F2F2"/>
<path d="M200.868 388.865L200.949 389.814L198.103 390.056L198.791 398.152L197.621 398.251L196.933 390.156L194.087 390.398L194.006 389.449L200.868 388.865Z" fill="#F2F2F2"/>
<path d="M233.657 385.483L236.031 394.245L234.898 394.552L232.524 385.791L233.657 385.483Z" fill="#F2F2F2"/>
<path d="M266.374 385.893L265.902 384.923C266.906 384.811 267.905 384.514 268.899 384.031C270.303 383.349 270.756 382.494 270.257 381.466C269.831 380.591 269.101 380.405 268.066 380.908L267.015 381.418C265.306 382.248 264.091 381.921 263.37 380.437C262.612 378.876 263.327 377.564 265.515 376.501C266.467 376.039 267.407 375.723 268.337 375.554L268.808 376.524C267.842 376.617 266.883 376.895 265.931 377.357C264.447 378.079 263.945 378.934 264.426 379.924C264.851 380.799 265.566 380.993 266.571 380.505L267.622 379.994C269.361 379.149 270.592 379.469 271.313 380.953C272.09 382.552 271.424 383.863 269.315 384.888C268.322 385.371 267.341 385.706 266.374 385.893Z" fill="#F2F2F2"/>
<path d="M304.279 367.593L303.32 368.346L300.748 358.826L301.771 358.023L310.421 362.773L309.398 363.576L306.71 362.054L304.348 363.908L304.015 362.959L305.813 361.548L301.94 359.359L304.279 367.593Z" fill="#F2F2F2"/>
<path d="M338.578 340.294L331.562 334.536L332.307 333.628L341.483 333.974L335.83 329.335L336.535 328.476L343.552 334.235L342.807 335.142L333.581 334.756L339.283 339.436L338.578 340.294Z" fill="#F2F2F2"/>
<path fill-rule="evenodd" clip-rule="evenodd" d="M123.341 169.453H55.7716V167.32H128.884L58.5432 231.301H126.112V233.434H53L123.341 169.453Z" fill="#F2F2F2"/>
<path d="M223.647 198.422C223.647 188.853 219.77 179.677 212.868 172.911C205.966 166.145 196.605 162.344 186.845 162.344C177.084 162.344 167.724 166.145 160.822 172.911C153.92 179.677 150.043 188.853 150.043 198.422H223.647Z" fill="url(#paint1_linear_50_228)"/>
<path d="M151.764 209.325C153.644 215.14 156.998 220.392 161.511 224.591C166.024 228.79 171.55 231.799 177.571 233.336C183.592 234.873 189.913 234.888 195.942 233.38C201.971 231.872 207.512 228.891 212.046 224.714L210.534 223.136C206.272 227.063 201.064 229.865 195.396 231.283C189.729 232.7 183.788 232.686 178.127 231.241C172.467 229.796 167.273 226.968 163.031 223.021C158.788 219.074 155.636 214.137 153.868 208.671L151.764 209.325Z" fill="#F2F2F2"/>
<path fill-rule="evenodd" clip-rule="evenodd" d="M277.075 163.758C257.938 165.995 246.671 181.288 246.671 198.422V232.545H244.495V198.422C244.495 180.366 256.433 164.024 276.818 161.64L277.075 163.758Z" fill="#F2F2F2"/>
<path fill-rule="evenodd" clip-rule="evenodd" d="M288.42 163.758C307.557 165.995 318.824 181.288 318.824 198.422V232.545H321V198.422C321 180.366 309.062 164.024 288.678 161.64L288.42 163.758Z" fill="#F2F2F2"/>
<path d="M284.923 161.633C284.923 162.811 283.949 163.765 282.748 163.765C281.546 163.765 280.572 162.811 280.572 161.633C280.572 160.455 281.546 159.5 282.748 159.5C283.949 159.5 284.923 160.455 284.923 161.633Z" fill="#F2F2F2"/>
<path fill-rule="evenodd" clip-rule="evenodd" d="M236.518 199.488H135.358V197.355H236.518V199.488Z" fill="#F2F2F2"/>
<defs>
<linearGradient id="paint0_linear_50_228" x1="190.99" y1="3.02553" x2="190.99" y2="398.251" gradientUnits="userSpaceOnUse">
<stop stop-color="#FF9900"/>
<stop offset="1" stop-color="#00B2FF"/>
</linearGradient>
<linearGradient id="paint1_linear_50_228" x1="188.5" y1="163.5" x2="189.281" y2="199.494" gradientUnits="userSpaceOnUse">
<stop offset="0.327211" stop-color="#FF9900"/>
<stop offset="1" stop-color="#00B2FF"/>
</linearGradient>
</defs>
</svg>
