<svg width="548" height="173" viewBox="0 0 548 173" fill="none" xmlns="http://www.w3.org/2000/svg">
<rect x="18" y="12" width="154.667" height="148" rx="12" fill="#1A1A1A" fill-opacity="0.5"/>
<path d="M102.008 85.375L124.508 107.875L132.421 99.775L109.921 77.275L102.008 85.375ZM115.958 65.875C114.496 65.875 112.921 65.6875 111.683 65.1625L68.9708 107.687L61.0583 99.775L88.8459 72.025L82.2084 65.35L79.5083 67.975L74.0709 62.6875V73.4125L71.4459 76.0375L58.2458 62.6875L60.8708 60.0625H71.4083L66.1583 54.775L79.5083 41.425C83.8958 37.0375 90.9459 37.0375 95.3334 41.425L87.4209 49.525L92.7084 54.775L90.0459 57.4375L96.7584 64.1125L103.583 57.0625C103.058 55.825 102.833 54.25 102.833 52.8625C102.833 45.475 108.683 39.6625 115.958 39.6625C118.171 39.6625 120.121 40.1875 121.883 41.2375L111.871 51.25L117.496 56.875L127.508 46.8625C128.558 48.625 129.083 50.5 129.083 52.8625C129.083 60.0625 123.271 65.875 115.958 65.875Z" fill="#1D73F4"/>
<path d="M61.7437 142V133.768H67.0597V134.728H62.8237V137.104H66.5077V138.064H62.8237V142H61.7437ZM72.8696 136V142H71.9096V141.232C71.4896 141.76 70.7336 142.12 70.0376 142.12C68.5376 142.12 67.5416 141.16 67.5416 139.72V136H68.5016V139.552C68.5016 140.584 69.1856 141.28 70.2056 141.28C71.2256 141.28 71.9096 140.584 71.9096 139.552V136H72.8696ZM74.3151 142V136H75.2751V136.768C75.6951 136.24 76.4511 135.88 77.1471 135.88C78.6471 135.88 79.6431 136.84 79.6431 138.28V142H78.6831V138.448C78.6831 137.416 77.9991 136.72 76.9791 136.72C75.9591 136.72 75.2751 137.416 75.2751 138.448V142H74.3151ZM83.6953 142.12C81.8953 142.12 80.6833 140.872 80.6833 139C80.6833 137.128 81.8953 135.88 83.6953 135.88C85.2193 135.88 86.3953 136.876 86.6233 138.376H85.7113C85.5313 137.38 84.7273 136.72 83.6953 136.72C82.4713 136.72 81.6433 137.632 81.6433 139C81.6433 140.368 82.4713 141.28 83.6953 141.28C84.7273 141.28 85.5433 140.596 85.7233 139.564H86.6353C86.4073 141.088 85.2313 142.12 83.6953 142.12ZM89.6992 142.12C88.6312 142.12 87.9112 141.46 87.9112 140.464V136.84H86.9512V136H87.9112V133.768H88.8712V136H90.6232V136.84H88.8712V140.464C88.8712 140.956 89.1832 141.28 89.6392 141.28H90.6832V142C90.3832 142.072 89.9872 142.12 89.6992 142.12ZM91.9987 135.088V133.768H92.9587V135.088H91.9987ZM91.9987 142V136H92.9587V142H91.9987ZM97.125 142.12C95.325 142.12 94.113 140.872 94.113 139C94.113 137.128 95.325 135.88 97.125 135.88C98.925 135.88 100.137 137.128 100.137 139C100.137 140.872 98.925 142.12 97.125 142.12ZM97.125 141.28C98.349 141.28 99.177 140.368 99.177 139C99.177 137.632 98.349 136.72 97.125 136.72C95.901 136.72 95.073 137.632 95.073 139C95.073 140.368 95.901 141.28 97.125 141.28ZM101.174 142V136H102.134V136.768C102.554 136.24 103.31 135.88 104.006 135.88C105.506 135.88 106.502 136.84 106.502 138.28V142H105.542V138.448C105.542 137.416 104.858 136.72 103.838 136.72C102.818 136.72 102.134 137.416 102.134 138.448V142H101.174ZM110.588 142.12C108.836 142.12 107.66 140.872 107.66 139C107.66 137.128 108.836 135.88 110.588 135.88C111.392 135.88 112.256 136.336 112.724 137.008V136H113.684V142H112.724V140.992C112.256 141.664 111.392 142.12 110.588 142.12ZM110.684 141.28C111.908 141.28 112.724 140.368 112.724 139C112.724 137.632 111.908 136.72 110.684 136.72C109.448 136.72 108.62 137.632 108.62 139C108.62 140.368 109.448 141.28 110.684 141.28ZM115.12 142V133.768H116.08V142H115.12ZM117.756 135.088V133.768H118.716V135.088H117.756ZM117.756 142V136H118.716V142H117.756ZM122.547 142.12C121.479 142.12 120.759 141.46 120.759 140.464V136.84H119.799V136H120.759V133.768H121.719V136H123.471V136.84H121.719V140.464C121.719 140.956 122.031 141.28 122.487 141.28H123.531V142C123.231 142.072 122.835 142.12 122.547 142.12ZM125.206 144.232L126.226 141.64L123.946 136H124.966L126.718 140.404L128.446 136H129.478L126.238 144.232H125.206Z" fill="#1D73F4"/>
<rect x="196.667" y="12" width="154.667" height="148" rx="12" fill="#1A1A1A" fill-opacity="0.5"/>
<path d="M287.125 73C296.5 73 304 80.5 304 89.875C304 93.175 303.062 96.2875 301.412 98.875L312.962 110.5L307.75 115.712L296.05 104.2C293.462 105.812 290.387 106.75 287.125 106.75C277.75 106.75 270.25 99.25 270.25 89.875C270.25 80.5 277.75 73 287.125 73ZM287.125 80.5C284.639 80.5 282.254 81.4877 280.496 83.2459C278.738 85.004 277.75 87.3886 277.75 89.875C277.75 92.3614 278.738 94.746 280.496 96.5041C282.254 98.2623 284.639 99.25 287.125 99.25C289.611 99.25 291.996 98.2623 293.754 96.5041C295.512 94.746 296.5 92.3614 296.5 89.875C296.5 87.3886 295.512 85.004 293.754 83.2459C291.996 81.4877 289.611 80.5 287.125 80.5ZM281.5 50.9125L259 43V87.5875L262.75 88.9V89.875C262.75 92.275 263.087 94.6 263.725 96.775L259 95.125L238.975 102.887L238.375 103C237.878 103 237.401 102.802 237.049 102.451C236.698 102.099 236.5 101.622 236.5 101.125V44.425C236.5 43.5625 237.062 42.8875 237.85 42.625L259 35.5L281.5 43.375L301.525 35.5H302.125C302.622 35.5 303.099 35.6975 303.451 36.0492C303.802 36.4008 304 36.8777 304 37.375V72.2875C299.612 68.0875 293.687 65.5 287.125 65.5C285.25 65.5 283.375 65.725 281.5 66.1375V50.9125Z" fill="#1D73F4"/>
<path d="M242.52 142V133.768H243.708L248.328 140.5V133.768H249.408V142H248.208L243.6 135.28V142H242.52ZM253.606 142.12C251.854 142.12 250.678 140.872 250.678 139C250.678 137.128 251.854 135.88 253.606 135.88C254.41 135.88 255.274 136.336 255.742 137.008V136H256.702V142H255.742V140.992C255.274 141.664 254.41 142.12 253.606 142.12ZM253.702 141.28C254.926 141.28 255.742 140.368 255.742 139C255.742 137.632 254.926 136.72 253.702 136.72C252.466 136.72 251.638 137.632 251.638 139C251.638 140.368 252.466 141.28 253.702 141.28ZM259.872 142L257.472 136H258.504L260.316 140.932L262.14 136H263.172L260.772 142H259.872ZM264.068 135.088V133.768H265.028V135.088H264.068ZM264.068 142V136H265.028V142H264.068ZM271.126 136H272.086V141.352C272.086 143.152 270.898 144.352 269.134 144.352C267.682 144.352 266.554 143.404 266.314 142H267.214C267.394 142.9 268.162 143.512 269.134 143.512C270.322 143.512 271.126 142.648 271.126 141.352V140.932C270.694 141.568 269.854 142 269.05 142C267.334 142 266.182 140.776 266.182 138.94C266.182 137.104 267.334 135.88 269.05 135.88C269.854 135.88 270.682 136.312 271.126 136.96V136ZM269.146 141.16C270.334 141.16 271.126 140.272 271.126 138.94C271.126 137.608 270.334 136.72 269.146 136.72C267.946 136.72 267.142 137.608 267.142 138.94C267.142 140.272 267.946 141.16 269.146 141.16ZM276.165 142.12C274.413 142.12 273.237 140.872 273.237 139C273.237 137.128 274.413 135.88 276.165 135.88C276.969 135.88 277.833 136.336 278.301 137.008V136H279.261V142H278.301V140.992C277.833 141.664 276.969 142.12 276.165 142.12ZM276.261 141.28C277.485 141.28 278.301 140.368 278.301 139C278.301 137.632 277.485 136.72 276.261 136.72C275.025 136.72 274.197 137.632 274.197 139C274.197 140.368 275.025 141.28 276.261 141.28ZM282.85 142.12C281.782 142.12 281.062 141.46 281.062 140.464V136.84H280.102V136H281.062V133.768H282.022V136H283.774V136.84H282.022V140.464C282.022 140.956 282.334 141.28 282.79 141.28H283.834V142C283.534 142.072 283.138 142.12 282.85 142.12ZM285.15 135.088V133.768H286.11V135.088H285.15ZM285.15 142V136H286.11V142H285.15ZM290.276 142.12C288.476 142.12 287.264 140.872 287.264 139C287.264 137.128 288.476 135.88 290.276 135.88C292.076 135.88 293.288 137.128 293.288 139C293.288 140.872 292.076 142.12 290.276 142.12ZM290.276 141.28C291.5 141.28 292.328 140.368 292.328 139C292.328 137.632 291.5 136.72 290.276 136.72C289.052 136.72 288.224 137.632 288.224 139C288.224 140.368 289.052 141.28 290.276 141.28ZM294.325 142V136H295.285V136.768C295.705 136.24 296.461 135.88 297.157 135.88C298.657 135.88 299.653 136.84 299.653 138.28V142H298.693V138.448C298.693 137.416 298.009 136.72 296.989 136.72C295.969 136.72 295.285 137.416 295.285 138.448V142H294.325ZM303.31 142.12C301.774 142.12 300.718 141.256 300.694 139.96H301.594C301.618 140.752 302.302 141.28 303.31 141.28C304.282 141.28 304.942 140.896 304.942 140.32C304.942 139.84 304.51 139.576 303.25 139.288C301.642 138.928 301.078 138.496 301.078 137.608C301.078 136.576 301.978 135.88 303.31 135.88C304.39 135.88 305.326 136.492 305.65 137.404L304.774 137.62C304.594 137.08 304.006 136.72 303.31 136.72C302.554 136.72 302.038 137.044 302.038 137.536C302.038 137.944 302.41 138.172 303.454 138.424C305.266 138.796 305.89 139.276 305.89 140.272C305.89 141.376 304.858 142.12 303.31 142.12Z" fill="#1D73F4"/>
<rect x="375.333" y="12" width="154.667" height="148" rx="12" fill="#1A1A1A" fill-opacity="0.5"/>
<path d="M478.917 31.75L474.192 42.0625L463.917 46.75L474.192 51.475L478.917 61.75L483.604 51.475L493.917 46.75L483.604 42.0625L478.917 31.75ZM441.417 43L432.042 63.625L411.417 73L432.042 82.375L441.417 103L450.792 82.375L471.417 73L450.792 63.625L441.417 43ZM478.917 84.25L474.192 94.525L463.917 99.25L474.192 103.938L478.917 114.25L483.604 103.938L493.917 99.25L483.604 94.525" fill="#1D73F4"/>
<path d="M404.337 142L400.953 133.768H402.105L404.889 140.764L407.673 133.768H408.825L405.441 142H404.337ZM409.6 135.088V133.768H410.56V135.088H409.6ZM409.6 142V136H410.56V142H409.6ZM414.33 142.12C412.794 142.12 411.738 141.256 411.714 139.96H412.614C412.638 140.752 413.322 141.28 414.33 141.28C415.302 141.28 415.962 140.896 415.962 140.32C415.962 139.84 415.53 139.576 414.27 139.288C412.662 138.928 412.098 138.496 412.098 137.608C412.098 136.576 412.998 135.88 414.33 135.88C415.41 135.88 416.346 136.492 416.67 137.404L415.794 137.62C415.614 137.08 415.026 136.72 414.33 136.72C413.574 136.72 413.058 137.044 413.058 137.536C413.058 137.944 413.43 138.172 414.474 138.424C416.286 138.796 416.91 139.276 416.91 140.272C416.91 141.376 415.878 142.12 414.33 142.12ZM423.271 136V142H422.311V141.232C421.891 141.76 421.135 142.12 420.439 142.12C418.939 142.12 417.943 141.16 417.943 139.72V136H418.903V139.552C418.903 140.584 419.587 141.28 420.607 141.28C421.627 141.28 422.311 140.584 422.311 139.552V136H423.271ZM427.357 142.12C425.605 142.12 424.429 140.872 424.429 139C424.429 137.128 425.605 135.88 427.357 135.88C428.161 135.88 429.025 136.336 429.493 137.008V136H430.453V142H429.493V140.992C429.025 141.664 428.161 142.12 427.357 142.12ZM427.453 141.28C428.677 141.28 429.493 140.368 429.493 139C429.493 137.632 428.677 136.72 427.453 136.72C426.217 136.72 425.389 137.632 425.389 139C425.389 140.368 426.217 141.28 427.453 141.28ZM431.889 142V133.768H432.849V142H431.889ZM437.27 142V133.768H442.586V134.728H438.35V137.104H442.154V138.064H438.35V141.04H442.586V142H437.27ZM443.666 142V136H444.626V136.768C445.046 136.24 445.802 135.88 446.498 135.88C447.998 135.88 448.994 136.84 448.994 138.28V142H448.034V138.448C448.034 137.416 447.35 136.72 446.33 136.72C445.31 136.72 444.626 137.416 444.626 138.448V142H443.666ZM450.439 142V133.768H451.399V136.768C451.819 136.24 452.575 135.88 453.271 135.88C454.771 135.88 455.767 136.84 455.767 138.28V142H454.807V138.448C454.807 137.416 454.123 136.72 453.103 136.72C452.083 136.72 451.399 137.416 451.399 138.448V142H450.439ZM459.853 142.12C458.101 142.12 456.925 140.872 456.925 139C456.925 137.128 458.101 135.88 459.853 135.88C460.657 135.88 461.521 136.336 461.989 137.008V136H462.949V142H461.989V140.992C461.521 141.664 460.657 142.12 459.853 142.12ZM459.949 141.28C461.173 141.28 461.989 140.368 461.989 139C461.989 137.632 461.173 136.72 459.949 136.72C458.713 136.72 457.885 137.632 457.885 139C457.885 140.368 458.713 141.28 459.949 141.28ZM466.992 142.12C465.192 142.12 463.98 140.872 463.98 139C463.98 137.128 465.192 135.88 466.992 135.88C468.516 135.88 469.692 136.876 469.92 138.376H469.008C468.828 137.38 468.024 136.72 466.992 136.72C465.768 136.72 464.94 137.632 464.94 139C464.94 140.368 465.768 141.28 466.992 141.28C468.024 141.28 468.84 140.596 469.02 139.564H469.932C469.704 141.088 468.528 142.12 466.992 142.12ZM473.812 142.12C472.012 142.12 470.8 140.872 470.8 139C470.8 137.128 472.012 135.88 473.812 135.88C475.612 135.88 476.824 137.176 476.824 139.096L476.728 139.192H471.772C471.82 140.44 472.636 141.28 473.812 141.28C474.7 141.28 475.468 140.752 475.732 139.96H476.692C476.308 141.256 475.156 142.12 473.812 142.12ZM471.82 138.352H475.804C475.588 137.38 474.784 136.72 473.812 136.72C472.84 136.72 472.036 137.38 471.82 138.352ZM477.978 142V136H478.938V136.672C479.274 136.192 479.886 135.88 480.474 135.88C481.11 135.88 481.794 136.252 482.178 136.792C482.562 136.252 483.282 135.88 483.99 135.88C485.31 135.88 486.186 136.672 486.186 137.86V142H485.226V137.956C485.226 137.212 484.686 136.72 483.894 136.72C483.102 136.72 482.562 137.212 482.562 137.956V142H481.602V137.956C481.602 137.212 481.062 136.72 480.27 136.72C479.478 136.72 478.938 137.212 478.938 137.956V142H477.978ZM490.23 142.12C488.43 142.12 487.218 140.872 487.218 139C487.218 137.128 488.43 135.88 490.23 135.88C492.03 135.88 493.242 137.176 493.242 139.096L493.146 139.192H488.19C488.238 140.44 489.054 141.28 490.23 141.28C491.118 141.28 491.886 140.752 492.15 139.96H493.11C492.726 141.256 491.574 142.12 490.23 142.12ZM488.238 138.352H492.222C492.006 137.38 491.202 136.72 490.23 136.72C489.258 136.72 488.454 137.38 488.238 138.352ZM494.396 142V136H495.356V136.768C495.776 136.24 496.532 135.88 497.228 135.88C498.728 135.88 499.724 136.84 499.724 138.28V142H498.764V138.448C498.764 137.416 498.08 136.72 497.06 136.72C496.04 136.72 495.356 137.416 495.356 138.448V142H494.396ZM503.323 142.12C502.255 142.12 501.535 141.46 501.535 140.464V136.84H500.575V136H501.535V133.768H502.495V136H504.247V136.84H502.495V140.464C502.495 140.956 502.807 141.28 503.263 141.28H504.307V142C504.007 142.072 503.611 142.12 503.323 142.12Z" fill="#1D73F4"/>
</svg>
