<svg width="548" height="173" viewBox="0 0 548 173" fill="none" xmlns="http://www.w3.org/2000/svg">
<rect x="18" y="12" width="154.667" height="148" rx="12" fill="#1A1A1A" fill-opacity="0.5"/>
<path d="M51.6654 59.5H54.9854V46.3H51.6654V59.5ZM53.3254 44.575C54.3654 44.575 55.1654 43.825 55.1654 42.8875C55.1654 41.95 54.3654 41.2 53.3254 41.2C52.2854 41.2 51.4854 41.95 51.4854 42.8875C51.4854 43.825 52.2854 44.575 53.3254 44.575ZM65.9854 41.2375C60.4054 41.2375 56.8854 44.8 56.8854 50.5C56.8854 56.2375 60.4054 59.8 65.9854 59.8C71.5654 59.8 75.0854 56.2375 75.0854 50.5C75.0854 44.8 71.5654 41.2375 65.9854 41.2375ZM65.9854 43.9375C69.4054 43.9375 71.5854 46.5063 71.5854 50.5C71.5854 54.5313 69.4054 57.0625 65.9854 57.0625C62.5654 57.0625 60.4054 54.5313 60.4054 50.5C60.4054 46.5063 62.5654 43.9375 65.9854 43.9375ZM76.4854 54.4563C76.6254 57.7563 79.4854 59.8 83.9254 59.8C88.5654 59.8 91.4854 57.6625 91.4854 54.25C91.4854 51.5688 89.8454 50.0688 85.9454 49.225L83.7454 48.7563C81.3854 48.2313 80.4254 47.5375 80.4254 46.3375C80.4254 44.875 81.8854 43.8438 84.0454 43.8438C86.2454 43.8438 87.7454 44.875 87.9054 46.5438H91.1654C91.0854 43.375 88.3054 41.2375 84.0654 41.2375C79.9054 41.2375 76.9454 43.3938 76.9454 46.5813C76.9454 49.15 78.6054 50.7438 82.1454 51.4938L84.6254 52.0375C87.0454 52.5813 88.0254 53.3125 88.0254 54.625C88.0254 56.125 86.4254 57.1938 84.1054 57.1938C81.7854 57.1938 80.0054 56.125 79.8054 54.4563H76.4854Z" fill="#1D73F4"/>
<path d="M128.705 101.406C127.785 101.406 127.025 100.712 127.025 99.85C127.025 98.9875 127.785 98.3125 128.705 98.3125C129.625 98.3125 130.385 98.9875 130.385 99.85C130.385 100.712 129.625 101.406 128.705 101.406ZM110.305 101.406C109.385 101.406 108.625 100.712 108.625 99.85C108.625 98.9875 109.385 98.3125 110.305 98.3125C111.225 98.3125 111.965 98.9875 111.965 99.85C111.965 100.712 111.225 101.406 110.305 101.406ZM129.305 92.0125L132.645 86.6125C132.825 86.2938 132.705 85.9 132.385 85.7313C132.045 85.5438 131.625 85.6563 131.485 85.975L128.065 91.4312C125.385 90.2875 122.485 89.6875 119.485 89.7062C116.425 89.7062 113.485 90.325 110.945 91.4125L107.565 85.9563C107.385 85.6375 106.965 85.525 106.625 85.7125C106.285 85.8813 106.185 86.275 106.365 86.5938L109.685 91.9938C103.985 94.9187 100.065 100.337 99.4854 106.75H139.485C138.925 100.356 135.025 94.9375 129.305 92.0125Z" fill="#1D73F4"/>
<path fill-rule="evenodd" clip-rule="evenodd" d="M47.1813 105.909L139.181 39.8154L139.79 40.5596L47.7895 106.653L47.1813 105.909Z" fill="#1D73F4"/>
<path d="M60.8791 142.12C58.4671 142.12 56.8591 140.416 56.8591 137.884C56.8591 135.352 58.4671 133.648 60.8791 133.648C62.7631 133.648 64.3231 134.92 64.7551 136.804H63.6991C63.3271 135.484 62.1991 134.608 60.8791 134.608C59.1151 134.608 57.9391 135.928 57.9391 137.884C57.9391 139.84 59.1151 141.16 60.8791 141.16C62.2831 141.16 63.4351 140.2 63.7471 138.772H64.7911C64.3951 140.776 62.8231 142.12 60.8791 142.12ZM65.8307 142V136H66.7907V136.828C67.2227 136.264 67.9067 135.88 68.5067 135.88C68.6867 135.88 68.8787 135.928 68.9987 136V136.72H68.5907C67.5107 136.72 66.7907 137.428 66.7907 138.496V142H65.8307ZM72.1992 142.12C70.3992 142.12 69.1872 140.872 69.1872 139C69.1872 137.128 70.3992 135.88 72.1992 135.88C73.9992 135.88 75.2112 137.128 75.2112 139C75.2112 140.872 73.9992 142.12 72.1992 142.12ZM72.1992 141.28C73.4232 141.28 74.2512 140.368 74.2512 139C74.2512 137.632 73.4232 136.72 72.1992 136.72C70.9752 136.72 70.1472 137.632 70.1472 139C70.1472 140.368 70.9752 141.28 72.1992 141.28ZM78.4595 142.12C76.9235 142.12 75.8675 141.256 75.8435 139.96H76.7435C76.7675 140.752 77.4515 141.28 78.4595 141.28C79.4315 141.28 80.0915 140.896 80.0915 140.32C80.0915 139.84 79.6595 139.576 78.3995 139.288C76.7915 138.928 76.2275 138.496 76.2275 137.608C76.2275 136.576 77.1275 135.88 78.4595 135.88C79.5395 135.88 80.4755 136.492 80.7995 137.404L79.9235 137.62C79.7435 137.08 79.1555 136.72 78.4595 136.72C77.7035 136.72 77.1875 137.044 77.1875 137.536C77.1875 137.944 77.5595 138.172 78.6035 138.424C80.4155 138.796 81.0395 139.276 81.0395 140.272C81.0395 141.376 80.0075 142.12 78.4595 142.12ZM84.2837 142.12C82.7477 142.12 81.6917 141.256 81.6677 139.96H82.5677C82.5917 140.752 83.2757 141.28 84.2837 141.28C85.2557 141.28 85.9157 140.896 85.9157 140.32C85.9157 139.84 85.4837 139.576 84.2237 139.288C82.6157 138.928 82.0517 138.496 82.0517 137.608C82.0517 136.576 82.9517 135.88 84.2837 135.88C85.3637 135.88 86.2997 136.492 86.6237 137.404L85.7477 137.62C85.5677 137.08 84.9797 136.72 84.2837 136.72C83.5277 136.72 83.0117 137.044 83.0117 137.536C83.0117 137.944 83.3837 138.172 84.4277 138.424C86.2397 138.796 86.8637 139.276 86.8637 140.272C86.8637 141.376 85.8317 142.12 84.2837 142.12ZM90.7593 142V133.768H94.1553C95.7033 133.768 96.7353 134.704 96.7353 136.096C96.7353 137.512 95.7033 138.46 94.1553 138.46H91.8393V142H90.7593ZM91.8393 137.5H94.1553C95.0553 137.5 95.6553 136.936 95.6553 136.096C95.6553 135.28 95.0553 134.728 94.1553 134.728H91.8393V137.5ZM97.8815 142V133.768H98.8415V142H97.8815ZM102.924 142.12C101.172 142.12 99.9958 140.872 99.9958 139C99.9958 137.128 101.172 135.88 102.924 135.88C103.728 135.88 104.592 136.336 105.06 137.008V136H106.02V142H105.06V140.992C104.592 141.664 103.728 142.12 102.924 142.12ZM103.02 141.28C104.244 141.28 105.06 140.368 105.06 139C105.06 137.632 104.244 136.72 103.02 136.72C101.784 136.72 100.956 137.632 100.956 139C100.956 140.368 101.784 141.28 103.02 141.28ZM113.36 134.524C112.904 134.524 112.592 134.848 112.592 135.328V136H113.936V136.84H112.592V142H111.632V136.84H110.672H109.484H109.016V140.464C109.016 140.992 109.292 141.28 109.784 141.28H110.252V142C110.12 142.072 109.904 142.12 109.676 142.12C108.704 142.12 108.056 141.568 108.056 140.572V136.84H107.096V136H108.056V133.768H109.016V136H110.192H111.128H111.632V135.328C111.632 134.32 112.292 133.648 113.288 133.648C113.516 133.648 113.78 133.696 113.936 133.768V134.524H113.36ZM117.141 142.12C115.341 142.12 114.129 140.872 114.129 139C114.129 137.128 115.341 135.88 117.141 135.88C118.941 135.88 120.153 137.128 120.153 139C120.153 140.872 118.941 142.12 117.141 142.12ZM117.141 141.28C118.365 141.28 119.193 140.368 119.193 139C119.193 137.632 118.365 136.72 117.141 136.72C115.917 136.72 115.089 137.632 115.089 139C115.089 140.368 115.917 141.28 117.141 141.28ZM121.19 142V136H122.15V136.828C122.582 136.264 123.266 135.88 123.866 135.88C124.046 135.88 124.238 135.928 124.358 136V136.72H123.95C122.87 136.72 122.15 137.428 122.15 138.496V142H121.19ZM125.315 142V136H126.275V136.672C126.611 136.192 127.223 135.88 127.811 135.88C128.447 135.88 129.131 136.252 129.515 136.792C129.899 136.252 130.619 135.88 131.327 135.88C132.647 135.88 133.523 136.672 133.523 137.86V142H132.563V137.956C132.563 137.212 132.023 136.72 131.231 136.72C130.439 136.72 129.899 137.212 129.899 137.956V142H128.939V137.956C128.939 137.212 128.399 136.72 127.607 136.72C126.815 136.72 126.275 137.212 126.275 137.956V142H125.315Z" fill="#1D73F4"/>
<rect x="196.667" y="12" width="154.667" height="148" rx="12" fill="#1A1A1A" fill-opacity="0.5"/>
<path d="M289 103H304V88H289V103ZM289 80.5H304V65.5H289V80.5ZM266.5 58H281.5V43H266.5V58ZM289 58H304V43H289V58ZM266.5 80.5H281.5V65.5H266.5V80.5ZM244 80.5H259V65.5H244V80.5ZM244 103H259V88H244V103ZM266.5 103H281.5V88H266.5V103ZM244 58H259V43H244V58Z" fill="#1D73F4"/>
<path d="M244.276 142L243.328 139.612H239.656L238.708 142H237.556L240.94 133.768H242.044L245.428 142H244.276ZM240.04 138.652H242.944L241.492 135.004L240.04 138.652ZM246.437 144.232V136H247.397V137.02C247.865 136.336 248.741 135.88 249.593 135.88C251.369 135.88 252.557 137.128 252.557 139C252.557 140.872 251.369 142.12 249.593 142.12C248.741 142.12 247.865 141.664 247.397 140.98V144.232H246.437ZM249.497 141.28C250.757 141.28 251.597 140.368 251.597 139C251.597 137.632 250.757 136.72 249.497 136.72C248.237 136.72 247.397 137.632 247.397 139C247.397 140.368 248.237 141.28 249.497 141.28ZM253.597 144.232V136H254.557V137.02C255.025 136.336 255.901 135.88 256.753 135.88C258.529 135.88 259.717 137.128 259.717 139C259.717 140.872 258.529 142.12 256.753 142.12C255.901 142.12 255.025 141.664 254.557 140.98V144.232H253.597ZM256.657 141.28C257.917 141.28 258.757 140.368 258.757 139C258.757 137.632 257.917 136.72 256.657 136.72C255.397 136.72 254.557 137.632 254.557 139C254.557 140.368 255.397 141.28 256.657 141.28ZM263.619 142V133.768H264.699V142H263.619ZM266.265 142V136H267.225V136.768C267.645 136.24 268.401 135.88 269.097 135.88C270.597 135.88 271.593 136.84 271.593 138.28V142H270.633V138.448C270.633 137.416 269.949 136.72 268.929 136.72C267.909 136.72 267.225 137.416 267.225 138.448V142H266.265ZM275.192 142.12C274.124 142.12 273.404 141.46 273.404 140.464V136.84H272.444V136H273.404V133.768H274.364V136H276.116V136.84H274.364V140.464C274.364 140.956 274.676 141.28 275.132 141.28H276.176V142C275.876 142.072 275.48 142.12 275.192 142.12ZM279.747 142.12C277.947 142.12 276.735 140.872 276.735 139C276.735 137.128 277.947 135.88 279.747 135.88C281.547 135.88 282.759 137.176 282.759 139.096L282.663 139.192H277.707C277.755 140.44 278.571 141.28 279.747 141.28C280.635 141.28 281.403 140.752 281.667 139.96H282.627C282.243 141.256 281.091 142.12 279.747 142.12ZM277.755 138.352H281.739C281.523 137.38 280.719 136.72 279.747 136.72C278.775 136.72 277.971 137.38 277.755 138.352ZM289.511 134.524C289.055 134.524 288.743 134.848 288.743 135.328V136H290.087V136.84H288.743V142H287.783V136.84H286.535H286.439C285.359 136.84 284.639 137.548 284.639 138.616V142H283.679V136H284.639V136.828C285.011 136.336 285.707 136 286.355 136H286.823H287.783V135.328C287.783 134.32 288.443 133.648 289.439 133.648C289.667 133.648 289.931 133.696 290.087 133.768V134.524H289.511ZM293.327 142.12C291.575 142.12 290.399 140.872 290.399 139C290.399 137.128 291.575 135.88 293.327 135.88C294.131 135.88 294.995 136.336 295.463 137.008V136H296.423V142H295.463V140.992C294.995 141.664 294.131 142.12 293.327 142.12ZM293.423 141.28C294.647 141.28 295.463 140.368 295.463 139C295.463 137.632 294.647 136.72 293.423 136.72C292.187 136.72 291.359 137.632 291.359 139C291.359 140.368 292.187 141.28 293.423 141.28ZM300.465 142.12C298.665 142.12 297.453 140.872 297.453 139C297.453 137.128 298.665 135.88 300.465 135.88C301.989 135.88 303.165 136.876 303.393 138.376H302.481C302.301 137.38 301.497 136.72 300.465 136.72C299.241 136.72 298.413 137.632 298.413 139C298.413 140.368 299.241 141.28 300.465 141.28C301.497 141.28 302.313 140.596 302.493 139.564H303.405C303.177 141.088 302.001 142.12 300.465 142.12ZM307.286 142.12C305.486 142.12 304.274 140.872 304.274 139C304.274 137.128 305.486 135.88 307.286 135.88C309.086 135.88 310.298 137.176 310.298 139.096L310.202 139.192H305.246C305.294 140.44 306.11 141.28 307.286 141.28C308.174 141.28 308.942 140.752 309.206 139.96H310.166C309.782 141.256 308.63 142.12 307.286 142.12ZM305.294 138.352H309.278C309.062 137.38 308.258 136.72 307.286 136.72C306.314 136.72 305.51 137.38 305.294 138.352Z" fill="#1D73F4"/>
<rect x="375.333" y="12" width="154.667" height="148" rx="12" fill="#1A1A1A" fill-opacity="0.5"/>
<path d="M422.667 31.75H482.667C483.661 31.75 484.615 32.1451 485.318 32.8483C486.022 33.5516 486.417 34.5054 486.417 35.5V50.5C486.417 51.4946 486.022 52.4484 485.318 53.1516C484.615 53.8549 483.661 54.25 482.667 54.25H422.667C421.672 54.25 420.718 53.8549 420.015 53.1516C419.312 52.4484 418.917 51.4946 418.917 50.5V35.5C418.917 34.5054 419.312 33.5516 420.015 32.8483C420.718 32.1451 421.672 31.75 422.667 31.75V31.75ZM422.667 61.75H482.667C483.661 61.75 484.615 62.1451 485.318 62.8484C486.022 63.5516 486.417 64.5054 486.417 65.5V80.5C486.417 81.4946 486.022 82.4484 485.318 83.1516C484.615 83.8549 483.661 84.25 482.667 84.25H422.667C421.672 84.25 420.718 83.8549 420.015 83.1516C419.312 82.4484 418.917 81.4946 418.917 80.5V65.5C418.917 64.5054 419.312 63.5516 420.015 62.8484C420.718 62.1451 421.672 61.75 422.667 61.75V61.75ZM422.667 91.75H482.667C483.661 91.75 484.615 92.1451 485.318 92.8483C486.022 93.5516 486.417 94.5054 486.417 95.5V110.5C486.417 111.495 486.022 112.448 485.318 113.152C484.615 113.855 483.661 114.25 482.667 114.25H422.667C421.672 114.25 420.718 113.855 420.015 113.152C419.312 112.448 418.917 111.495 418.917 110.5V95.5C418.917 94.5054 419.312 93.5516 420.015 92.8483C420.718 92.1451 421.672 91.75 422.667 91.75V91.75ZM441.417 46.75H445.167V39.25H441.417V46.75ZM441.417 76.75H445.167V69.25H441.417V76.75ZM441.417 106.75H445.167V99.25H441.417V106.75ZM426.417 39.25V46.75H433.917V39.25H426.417ZM426.417 69.25V76.75H433.917V69.25H426.417ZM426.417 99.25V106.75H433.917V99.25H426.417Z" fill="#1D73F4"/>
<path d="M391.936 142V133.768H393.388L396.316 140.632L399.244 133.768H400.696V142H399.616V135.088L396.724 142H395.908L393.016 135.088V142H391.936ZM404.898 142.12C403.146 142.12 401.97 140.872 401.97 139C401.97 137.128 403.146 135.88 404.898 135.88C405.702 135.88 406.566 136.336 407.034 137.008V136H407.994V142H407.034V140.992C406.566 141.664 405.702 142.12 404.898 142.12ZM404.994 141.28C406.218 141.28 407.034 140.368 407.034 139C407.034 137.632 406.218 136.72 404.994 136.72C403.758 136.72 402.93 137.632 402.93 139C402.93 140.368 403.758 141.28 404.994 141.28ZM409.43 142V136H410.39V136.768C410.81 136.24 411.566 135.88 412.262 135.88C413.762 135.88 414.758 136.84 414.758 138.28V142H413.798V138.448C413.798 137.416 413.114 136.72 412.094 136.72C411.074 136.72 410.39 137.416 410.39 138.448V142H409.43ZM418.843 142.12C417.091 142.12 415.915 140.872 415.915 139C415.915 137.128 417.091 135.88 418.843 135.88C419.647 135.88 420.511 136.336 420.979 137.008V136H421.939V142H420.979V140.992C420.511 141.664 419.647 142.12 418.843 142.12ZM418.939 141.28C420.163 141.28 420.979 140.368 420.979 139C420.979 137.632 420.163 136.72 418.939 136.72C417.703 136.72 416.875 137.632 416.875 139C416.875 140.368 417.703 141.28 418.939 141.28ZM427.797 136H428.757V141.352C428.757 143.152 427.569 144.352 425.805 144.352C424.353 144.352 423.225 143.404 422.985 142H423.885C424.065 142.9 424.833 143.512 425.805 143.512C426.993 143.512 427.797 142.648 427.797 141.352V140.932C427.365 141.568 426.525 142 425.721 142C424.005 142 422.853 140.776 422.853 138.94C422.853 137.104 424.005 135.88 425.721 135.88C426.525 135.88 427.353 136.312 427.797 136.96V136ZM425.817 141.16C427.005 141.16 427.797 140.272 427.797 138.94C427.797 137.608 427.005 136.72 425.817 136.72C424.617 136.72 423.813 137.608 423.813 138.94C423.813 140.272 424.617 141.16 425.817 141.16ZM432.802 142.12C431.002 142.12 429.79 140.872 429.79 139C429.79 137.128 431.002 135.88 432.802 135.88C434.602 135.88 435.814 137.176 435.814 139.096L435.718 139.192H430.762C430.81 140.44 431.626 141.28 432.802 141.28C433.69 141.28 434.458 140.752 434.722 139.96H435.682C435.298 141.256 434.146 142.12 432.802 142.12ZM430.81 138.352H434.794C434.578 137.38 433.774 136.72 432.802 136.72C431.83 136.72 431.026 137.38 430.81 138.352ZM436.969 142V136H437.929V136.672C438.265 136.192 438.877 135.88 439.465 135.88C440.101 135.88 440.785 136.252 441.169 136.792C441.553 136.252 442.273 135.88 442.981 135.88C444.301 135.88 445.177 136.672 445.177 137.86V142H444.217V137.956C444.217 137.212 443.677 136.72 442.885 136.72C442.093 136.72 441.553 137.212 441.553 137.956V142H440.593V137.956C440.593 137.212 440.053 136.72 439.261 136.72C438.469 136.72 437.929 137.212 437.929 137.956V142H436.969ZM449.22 142.12C447.42 142.12 446.208 140.872 446.208 139C446.208 137.128 447.42 135.88 449.22 135.88C451.02 135.88 452.232 137.176 452.232 139.096L452.136 139.192H447.18C447.228 140.44 448.044 141.28 449.22 141.28C450.108 141.28 450.876 140.752 451.14 139.96H452.1C451.716 141.256 450.564 142.12 449.22 142.12ZM447.228 138.352H451.212C450.996 137.38 450.192 136.72 449.22 136.72C448.248 136.72 447.444 137.38 447.228 138.352ZM453.387 142V136H454.347V136.768C454.767 136.24 455.523 135.88 456.219 135.88C457.719 135.88 458.715 136.84 458.715 138.28V142H457.755V138.448C457.755 137.416 457.071 136.72 456.051 136.72C455.031 136.72 454.347 137.416 454.347 138.448V142H453.387ZM462.314 142.12C461.246 142.12 460.526 141.46 460.526 140.464V136.84H459.566V136H460.526V133.768H461.486V136H463.238V136.84H461.486V140.464C461.486 140.956 461.798 141.28 462.254 141.28H463.298V142C462.998 142.072 462.602 142.12 462.314 142.12ZM467.124 142V133.768H468.204V142H467.124ZM469.769 142V136H470.729V136.768C471.149 136.24 471.905 135.88 472.601 135.88C474.101 135.88 475.097 136.84 475.097 138.28V142H474.137V138.448C474.137 137.416 473.453 136.72 472.433 136.72C471.413 136.72 470.729 137.416 470.729 138.448V142H469.769ZM478.697 142.12C477.629 142.12 476.909 141.46 476.909 140.464V136.84H475.949V136H476.909V133.768H477.869V136H479.621V136.84H477.869V140.464C477.869 140.956 478.181 141.28 478.637 141.28H479.681V142C479.381 142.072 478.985 142.12 478.697 142.12ZM483.251 142.12C481.451 142.12 480.239 140.872 480.239 139C480.239 137.128 481.451 135.88 483.251 135.88C485.051 135.88 486.263 137.176 486.263 139.096L486.167 139.192H481.211C481.259 140.44 482.075 141.28 483.251 141.28C484.139 141.28 484.907 140.752 485.171 139.96H486.131C485.747 141.256 484.595 142.12 483.251 142.12ZM481.259 138.352H485.243C485.027 137.38 484.223 136.72 483.251 136.72C482.279 136.72 481.475 137.38 481.259 138.352ZM493.016 134.524C492.56 134.524 492.248 134.848 492.248 135.328V136H493.592V136.84H492.248V142H491.288V136.84H490.04H489.944C488.864 136.84 488.144 137.548 488.144 138.616V142H487.184V136H488.144V136.828C488.516 136.336 489.212 136 489.86 136H490.328H491.288V135.328C491.288 134.32 491.948 133.648 492.944 133.648C493.172 133.648 493.436 133.696 493.592 133.768V134.524H493.016ZM496.831 142.12C495.079 142.12 493.903 140.872 493.903 139C493.903 137.128 495.079 135.88 496.831 135.88C497.635 135.88 498.499 136.336 498.967 137.008V136H499.927V142H498.967V140.992C498.499 141.664 497.635 142.12 496.831 142.12ZM496.927 141.28C498.151 141.28 498.967 140.368 498.967 139C498.967 137.632 498.151 136.72 496.927 136.72C495.691 136.72 494.863 137.632 494.863 139C494.863 140.368 495.691 141.28 496.927 141.28ZM503.97 142.12C502.17 142.12 500.958 140.872 500.958 139C500.958 137.128 502.17 135.88 503.97 135.88C505.494 135.88 506.67 136.876 506.898 138.376H505.986C505.806 137.38 505.002 136.72 503.97 136.72C502.746 136.72 501.918 137.632 501.918 139C501.918 140.368 502.746 141.28 503.97 141.28C505.002 141.28 505.818 140.596 505.998 139.564H506.91C506.682 141.088 505.506 142.12 503.97 142.12ZM510.79 142.12C508.99 142.12 507.778 140.872 507.778 139C507.778 137.128 508.99 135.88 510.79 135.88C512.59 135.88 513.802 137.176 513.802 139.096L513.706 139.192H508.75C508.798 140.44 509.614 141.28 510.79 141.28C511.678 141.28 512.446 140.752 512.71 139.96H513.67C513.286 141.256 512.134 142.12 510.79 142.12ZM508.798 138.352H512.782C512.566 137.38 511.762 136.72 510.79 136.72C509.818 136.72 509.014 137.38 508.798 138.352Z" fill="#1D73F4"/>
</svg>
